<svg width="161" height="140" viewBox="0 0 161 140" fill="none" xmlns="http://www.w3.org/2000/svg">
<mask id="path-1-inside-1_22_309" fill="white">
<path d="M82.9936 118.685C74.4923 118.99 65.6893 117.014 57.4141 112.942C49.139 108.87 41.664 102.836 35.6934 95.4086C29.7229 87.9815 25.4533 79.4057 23.2869 70.4891C21.1206 61.5725 21.1287 52.6087 23.3107 44.4421L32.73 48.5471C30.9635 55.1586 30.9569 62.4156 32.7108 69.6343C34.4646 76.853 37.9212 83.7959 42.7549 89.8087C47.5886 95.8216 53.6402 100.707 60.3396 104.003C67.0391 107.3 74.1658 108.9 81.0484 108.653L82.9936 118.685Z"/>
</mask>
<path d="M82.9936 118.685C74.4923 118.99 65.6893 117.014 57.4141 112.942C49.139 108.87 41.664 102.836 35.6934 95.4086C29.7229 87.9815 25.4533 79.4057 23.2869 70.4891C21.1206 61.5725 21.1287 52.6087 23.3107 44.4421L32.73 48.5471C30.9635 55.1586 30.9569 62.4156 32.7108 69.6343C34.4646 76.853 37.9212 83.7959 42.7549 89.8087C47.5886 95.8216 53.6402 100.707 60.3396 104.003C67.0391 107.3 74.1658 108.9 81.0484 108.653L82.9936 118.685Z" stroke="#0099FF" stroke-width="20" mask="url(#path-1-inside-1_22_309)"/>
<mask id="path-2-inside-2_22_309" fill="white">
<path d="M118.475 4.40589C122.951 4.79276 127.353 6.1778 131.376 8.46546C135.398 10.7531 138.947 13.8889 141.776 17.6565C144.605 21.4241 146.647 25.7338 147.763 30.2882C148.878 34.8426 149.039 39.5334 148.235 44.0368L142.437 42.5749C143.088 38.929 142.957 35.1314 142.054 31.4442C141.152 27.757 139.498 24.268 137.208 21.2178C134.917 18.1676 132.044 15.6289 128.788 13.7769C125.531 11.9248 121.968 10.8035 118.344 10.4903L118.475 4.40589Z"/>
</mask>
<path d="M118.475 4.40589C122.951 4.79276 127.353 6.1778 131.376 8.46546C135.398 10.7531 138.947 13.8889 141.776 17.6565C144.605 21.4241 146.647 25.7338 147.763 30.2882C148.878 34.8426 149.039 39.5334 148.235 44.0368L142.437 42.5749C143.088 38.929 142.957 35.1314 142.054 31.4442C141.152 27.757 139.498 24.268 137.208 21.2178C134.917 18.1676 132.044 15.6289 128.788 13.7769C125.531 11.9248 121.968 10.8035 118.344 10.4903L118.475 4.40589Z" stroke="#0099FF" stroke-width="20" mask="url(#path-2-inside-2_22_309)"/>
<circle cx="90.0991" cy="55.0991" r="38.0606" transform="rotate(12.0462 90.0991 55.0991)" stroke="black" stroke-width="10"/>
</svg>
