<svg width="207" height="242" viewBox="0 0 207 242" fill="none" xmlns="http://www.w3.org/2000/svg">
<path d="M92.7144 22L52.0141 212.724" stroke="black" stroke-width="10"/>
<path d="M152.829 34.5259L112.129 225.249" stroke="black" stroke-width="10"/>
<path d="M2 132.303L192.724 173.003" stroke="black" stroke-width="10"/>
<path d="M14.3521 74.42L205.076 115.12" stroke="black" stroke-width="10"/>
<circle cx="52.4803" cy="45.4803" r="20" transform="rotate(12.0462 52.4803 45.4803)" stroke="black" stroke-width="8"/>
<circle cx="102.48" cy="123.48" r="20" transform="rotate(12.0462 102.48 123.48)" stroke="black" stroke-width="8"/>
<circle cx="152.48" cy="200.48" r="20" transform="rotate(12.0462 152.48 200.48)" stroke="black" stroke-width="8"/>
<path d="M28 5L181 237" stroke="#0099FF" stroke-width="15"/>
<path d="M92.7144 22L52.0141 212.724" stroke="black" stroke-width="10"/>
<path d="M152.829 34.5259L112.129 225.249" stroke="black" stroke-width="10"/>
<path d="M2 132.303L192.724 173.003" stroke="black" stroke-width="10"/>
<path d="M14.3521 74.42L205.076 115.12" stroke="black" stroke-width="10"/>
<circle cx="52.4803" cy="45.4803" r="20" transform="rotate(12.0462 52.4803 45.4803)" stroke="black" stroke-width="8"/>
<circle cx="102.48" cy="123.48" r="20" transform="rotate(12.0462 102.48 123.48)" stroke="black" stroke-width="8"/>
<circle cx="152.48" cy="200.48" r="20" transform="rotate(12.0462 152.48 200.48)" stroke="black" stroke-width="8"/>
<path d="M28 5L181 237" stroke="#0099FF" stroke-width="15"/>
</svg>
