<svg width="301" height="306" viewBox="0 0 301 306" fill="none" xmlns="http://www.w3.org/2000/svg">
<path fill-rule="evenodd" clip-rule="evenodd" d="M141.304 0.375639C180.737 -3.80979 212.273 27.8107 240.532 53.883C269.07 80.2118 307.931 109.987 299.939 146.734C292.074 182.898 234.016 181.317 206.974 208.183C178.001 236.967 182.32 294.819 141.304 304.333C99.5536 314.017 59.8044 279.67 32.3442 248.69C7.29959 220.435 -4.56296 182.985 1.60966 146.734C7.04151 114.833 39.297 96.8946 62.2932 72.8015C87.8239 46.0529 103.221 4.4178 141.304 0.375639Z" fill="#FF0000" fill-opacity="0.1"/>
<g clip-path="url(#clip0_24_299)">
<path d="M227.599 257.943L225.331 256.888L224.278 259.157L211.606 286.467L169.797 172.006L213.068 156.169L254.873 270.623L227.599 257.943Z" fill="#FF0000" stroke="black" stroke-width="5"/>
<g opacity="0.2">
<path d="M171.036 33.8343L172.109 34.9995L173.621 34.5268C175.965 33.794 178.112 33.1098 180.086 32.481C185.199 30.8519 189.146 29.5944 192.322 28.8253C196.827 27.7344 198.898 27.8818 200.135 28.5991C201.375 29.3175 202.535 31.045 203.838 35.4997C204.752 38.6251 205.629 42.6523 206.763 47.8621C207.208 49.9072 207.693 52.1345 208.235 54.561L208.581 56.1076L210.127 56.455C212.641 57.0195 214.94 57.5217 217.046 57.9813C222.172 59.1007 226.143 59.9678 229.233 60.8699C233.697 62.1729 235.413 63.3268 236.121 64.5551C236.83 65.7835 236.97 67.8469 235.865 72.3644C235.099 75.4916 233.863 79.3642 232.267 84.3631C231.611 86.4162 230.895 88.6593 230.126 91.1188L229.653 92.6317L230.819 93.7049C232.5 95.2513 234.06 96.6721 235.501 97.9857C239.597 101.718 242.744 104.586 245.043 107.012C248.221 110.366 249.136 112.255 249.135 113.712C249.134 115.171 248.216 117.06 245.036 120.413C242.747 122.827 239.62 125.677 235.556 129.382C234.099 130.71 232.521 132.148 230.819 133.715L229.653 134.788L230.125 136.3C230.836 138.576 231.501 140.666 232.114 142.593C233.768 147.796 235.042 151.803 235.815 155.019C236.9 159.528 236.749 161.608 236.027 162.854C235.305 164.101 233.574 165.264 229.132 166.569C226.006 167.486 221.978 168.365 216.766 169.502C214.738 169.945 212.531 170.426 210.129 170.964L208.581 171.311L208.235 172.859C207.702 175.244 207.225 177.437 206.786 179.453C205.645 184.695 204.763 188.744 203.842 191.883C202.538 196.33 201.373 198.063 200.126 198.786C198.882 199.507 196.803 199.657 192.298 198.569C189.082 197.792 185.075 196.512 179.87 194.85C177.95 194.237 175.868 193.572 173.602 192.861L172.087 192.386L171.012 193.555C169.327 195.388 167.792 197.077 166.383 198.628C162.794 202.577 160.021 205.628 157.666 207.879C154.31 211.087 152.444 211.999 151.016 211.999C149.589 211.999 147.723 211.087 144.366 207.879C142.012 205.628 139.239 202.577 135.65 198.628C134.241 197.077 132.705 195.388 131.02 193.555L129.946 192.386L128.432 192.861C125.863 193.666 123.53 194.414 121.404 195.096C116.51 196.665 112.708 197.884 109.628 198.647C105.1 199.769 103.051 199.633 101.84 198.933C100.627 198.234 99.4841 196.527 98.1889 192.043C97.3073 188.991 96.4588 185.083 95.3668 180.054C94.8933 177.873 94.374 175.482 93.7865 172.858L93.44 171.311L91.8929 170.964C89.3847 170.403 87.0895 169.904 84.9883 169.447C79.872 168.333 75.9066 167.471 72.8193 166.572C68.3605 165.273 66.6405 164.12 65.9275 162.888C65.2148 161.657 65.0699 159.589 66.169 155.069C66.9377 151.908 68.1884 147.983 69.8067 142.905C70.4479 140.893 71.1468 138.699 71.8964 136.3L72.3689 134.788L71.2032 133.715C69.4582 132.109 67.8443 130.639 66.3567 129.284C62.341 125.625 59.2452 122.804 56.9721 120.412C53.7864 117.06 52.8664 115.176 52.8641 113.722C52.8617 112.271 53.7734 110.386 56.9556 107.03C59.2527 104.607 62.3965 101.743 66.4884 98.0147C67.9391 96.693 69.509 95.2627 71.2026 93.705L72.3686 92.6325L71.8966 91.1202C71.1682 88.7862 70.488 86.6466 69.8624 84.679C68.2294 79.5431 66.9692 75.5796 66.1992 72.3912C65.1093 67.878 65.2556 65.7984 65.9743 64.5544C66.6925 63.3115 68.4174 62.1497 72.864 60.8469C75.9941 59.9297 80.0306 59.0514 85.2561 57.9144C87.2851 57.473 89.4933 56.9925 91.8972 56.4556L93.4462 56.1097L93.7922 54.5607C94.366 51.9918 94.8747 49.6457 95.3395 47.5022C96.4415 42.4204 97.2964 38.4775 98.1862 35.4037C99.4822 30.9263 100.63 29.2119 101.851 28.5057C103.07 27.8001 105.126 27.6599 109.65 28.7711C112.76 29.535 116.607 30.7645 121.568 32.3498C123.651 33.0154 125.93 33.7438 128.433 34.5267L129.947 35.0001L131.02 33.8326C132.602 32.1116 134.052 30.5183 135.391 29.0478C139.078 24.9973 141.915 21.8794 144.32 19.5952C147.671 16.4113 149.554 15.495 151.008 15.4946C152.461 15.4942 154.348 16.4103 157.706 19.5939C160.12 21.8824 162.971 25.0085 166.677 29.0719C168.013 30.5361 169.459 32.122 171.036 33.8343Z" fill="#F5F5FF" stroke="black" stroke-width="5"/>
</g>
<path d="M77.7225 259.157L76.6695 256.888L74.4007 257.943L47.1268 270.623L88.9322 156.169L132.203 172.006L90.3935 286.467L77.7225 259.157Z" fill="#FF0000" stroke="black" stroke-width="5"/>
<path d="M171.036 33.8343L172.109 34.9995L173.621 34.5268C175.965 33.794 178.112 33.1098 180.086 32.481C185.199 30.8519 189.146 29.5944 192.322 28.8253C196.827 27.7344 198.898 27.8818 200.135 28.5991C201.375 29.3175 202.535 31.045 203.838 35.4997C204.752 38.6251 205.629 42.6523 206.763 47.8621C207.208 49.9072 207.693 52.1345 208.235 54.561L208.581 56.1076L210.127 56.455C212.641 57.0195 214.94 57.5217 217.046 57.9813C222.172 59.1007 226.143 59.9678 229.233 60.8699C233.697 62.1729 235.413 63.3268 236.121 64.5551C236.83 65.7835 236.97 67.8469 235.865 72.3644C235.099 75.4916 233.863 79.3642 232.267 84.3631C231.611 86.4162 230.895 88.6593 230.126 91.1188L229.653 92.6317L230.819 93.7049C232.5 95.2513 234.06 96.6721 235.501 97.9857C239.597 101.718 242.744 104.586 245.043 107.012C248.221 110.366 249.136 112.255 249.135 113.712C249.134 115.171 248.216 117.06 245.036 120.413C242.747 122.827 239.62 125.677 235.556 129.382C234.099 130.71 232.521 132.148 230.819 133.715L229.653 134.788L230.125 136.3C230.836 138.576 231.501 140.666 232.114 142.593C233.768 147.796 235.042 151.803 235.815 155.019C236.9 159.528 236.749 161.608 236.027 162.854C235.305 164.101 233.574 165.264 229.132 166.569C226.006 167.486 221.978 168.365 216.766 169.502C214.738 169.945 212.531 170.426 210.129 170.964L208.581 171.311L208.235 172.859C207.702 175.244 207.225 177.437 206.786 179.453C205.645 184.695 204.763 188.744 203.842 191.883C202.538 196.33 201.373 198.063 200.126 198.786C198.882 199.507 196.803 199.657 192.298 198.569C189.082 197.792 185.075 196.512 179.87 194.85C177.95 194.237 175.868 193.572 173.602 192.861L172.087 192.386L171.012 193.555C169.327 195.388 167.792 197.077 166.383 198.628C162.794 202.577 160.021 205.628 157.666 207.879C154.31 211.087 152.444 211.999 151.016 211.999C149.589 211.999 147.723 211.087 144.366 207.879C142.012 205.628 139.239 202.577 135.65 198.628C134.241 197.077 132.705 195.388 131.02 193.555L129.946 192.386L128.432 192.861C125.863 193.666 123.53 194.414 121.404 195.096C116.51 196.665 112.708 197.884 109.628 198.647C105.1 199.769 103.051 199.633 101.84 198.933C100.627 198.234 99.4841 196.527 98.1889 192.043C97.3073 188.991 96.4588 185.083 95.3668 180.054C94.8933 177.873 94.374 175.482 93.7865 172.858L93.44 171.311L91.8929 170.964C89.3847 170.403 87.0895 169.904 84.9883 169.447C79.872 168.333 75.9066 167.471 72.8193 166.572C68.3605 165.273 66.6405 164.12 65.9275 162.888C65.2148 161.657 65.0699 159.589 66.169 155.069C66.9377 151.908 68.1884 147.983 69.8067 142.905C70.4479 140.893 71.1468 138.699 71.8964 136.3L72.3689 134.788L71.2032 133.715C69.4582 132.109 67.8443 130.639 66.3567 129.284C62.341 125.625 59.2452 122.804 56.9721 120.412C53.7864 117.06 52.8664 115.176 52.8641 113.722C52.8617 112.271 53.7734 110.386 56.9556 107.03C59.2527 104.607 62.3965 101.743 66.4884 98.0147C67.9391 96.693 69.509 95.2627 71.2026 93.705L72.3686 92.6325L71.8966 91.1202C71.1682 88.7862 70.488 86.6466 69.8624 84.679C68.2294 79.5431 66.9692 75.5796 66.1992 72.3912C65.1093 67.878 65.2556 65.7984 65.9743 64.5544C66.6925 63.3115 68.4174 62.1497 72.864 60.8469C75.9941 59.9297 80.0306 59.0514 85.2561 57.9144C87.2851 57.473 89.4933 56.9925 91.8972 56.4556L93.4462 56.1097L93.7922 54.5607C94.366 51.9918 94.8747 49.6457 95.3395 47.5022C96.4415 42.4204 97.2964 38.4775 98.1862 35.4037C99.4822 30.9263 100.63 29.2119 101.851 28.5057C103.07 27.8001 105.126 27.6599 109.65 28.7711C112.76 29.535 116.607 30.7645 121.568 32.3498C123.651 33.0154 125.93 33.7438 128.433 34.5267L129.947 35.0001L131.02 33.8326C132.602 32.1116 134.052 30.5183 135.391 29.0478C139.078 24.9973 141.915 21.8794 144.32 19.5952C147.671 16.4113 149.554 15.495 151.008 15.4946C152.461 15.4942 154.348 16.4103 157.706 19.5939C160.12 21.8824 162.971 25.0085 166.677 29.0719C168.013 30.5361 169.459 32.122 171.036 33.8343Z" fill="#F5F5FF" stroke="black" stroke-width="5"/>
<g style="mix-blend-mode:multiply">
<path d="M160.715 72.2778L161.789 73.4466L163.304 72.9716C164.561 72.5773 165.704 72.2121 166.748 71.8786C169.446 71.0165 171.485 70.3652 173.129 69.9662C175.513 69.3877 176.185 69.5948 176.4 69.7194C176.617 69.8448 177.131 70.3259 177.82 72.681C178.292 74.2932 178.743 76.3643 179.338 79.0988C179.574 80.1856 179.833 81.3773 180.126 82.6866L180.472 84.2351L182.02 84.5813C183.37 84.8833 184.596 85.1498 185.71 85.3922C188.412 85.9799 190.462 86.4257 192.061 86.8917C194.425 87.5806 194.895 88.0914 195.013 88.2971C195.132 88.504 195.338 89.1683 194.751 91.561C194.356 93.1714 193.721 95.157 192.885 97.7699C192.534 98.8666 192.148 100.074 191.73 101.41L191.256 102.924L192.423 103.997C193.322 104.824 194.15 105.578 194.911 106.272C197.075 108.244 198.7 109.726 199.888 110.981C201.563 112.75 201.728 113.449 201.728 113.717C201.728 113.988 201.558 114.687 199.881 116.458C198.703 117.702 197.097 119.167 194.966 121.111C194.189 121.819 193.343 122.592 192.422 123.44L191.256 124.514L191.73 126.026C192.113 127.251 192.469 128.367 192.795 129.39C193.667 132.126 194.324 134.188 194.723 135.846C195.297 138.227 195.089 138.901 194.962 139.119C194.834 139.34 194.349 139.854 191.999 140.544C190.391 141.015 188.327 141.466 185.603 142.06C184.517 142.297 183.327 142.557 182.019 142.85L180.472 143.196L180.126 144.744C179.838 146.03 179.583 147.202 179.349 148.273C178.748 151.03 178.293 153.116 177.817 154.736C177.127 157.086 176.611 157.569 176.391 157.697C176.172 157.823 175.496 158.03 173.116 157.454C171.467 157.056 169.422 156.403 166.714 155.54C165.679 155.21 164.547 154.849 163.303 154.459L161.789 153.985L160.715 155.152C159.802 156.145 158.978 157.051 158.226 157.878C156.346 159.945 154.922 161.51 153.709 162.669C151.934 164.365 151.251 164.521 151.005 164.521C150.76 164.521 150.077 164.365 148.302 162.669C147.089 161.51 145.665 159.945 143.785 157.878C143.033 157.051 142.208 156.145 141.295 155.152L140.222 153.985L138.709 154.459C137.306 154.898 136.045 155.301 134.905 155.666C132.356 156.482 130.411 157.105 128.827 157.497C126.425 158.093 125.774 157.885 125.58 157.773C125.386 157.662 124.881 157.203 124.196 154.825C123.743 153.252 123.308 151.247 122.739 148.617C122.487 147.454 122.209 146.168 121.891 144.744L121.545 143.197L119.998 142.85C118.627 142.542 117.384 142.272 116.257 142.026C113.588 141.445 111.559 141.003 109.971 140.541C107.608 139.854 107.132 139.343 107.011 139.134C106.891 138.928 106.683 138.265 107.265 135.876C107.663 134.247 108.306 132.233 109.156 129.572C109.499 128.5 109.874 127.324 110.281 126.027L110.755 124.514L109.589 123.44C108.641 122.567 107.772 121.774 106.977 121.049C104.874 119.132 103.286 117.684 102.117 116.452C100.434 114.681 100.267 113.985 100.266 113.72C100.266 113.458 100.428 112.763 102.108 110.991C103.29 109.744 104.906 108.272 107.054 106.314C107.828 105.609 108.671 104.841 109.588 103.997L110.755 102.924L110.281 101.41C109.887 100.151 109.522 99.0052 109.188 97.959C108.329 95.264 107.679 93.2269 107.281 91.5837C106.703 89.1993 106.91 88.5256 107.035 88.3087C107.161 88.0916 107.642 87.577 109.995 86.8876C111.609 86.4148 113.683 85.9631 116.424 85.3665C117.506 85.1309 118.693 84.8726 119.996 84.5814L121.545 84.2353L121.891 82.6863C122.201 81.2985 122.473 80.0427 122.72 78.9035C123.297 76.2383 123.737 74.211 124.196 72.6248C124.882 70.2531 125.391 69.787 125.591 69.6714C125.791 69.5559 126.448 69.3486 128.845 69.9394C130.447 70.3344 132.42 70.9665 135.014 71.7975C136.125 72.1534 137.349 72.5458 138.708 72.9716L140.222 73.4465L141.296 72.2778C142.152 71.3465 142.93 70.4913 143.644 69.7072C145.581 67.5788 147.041 65.9748 148.28 64.7971C150.05 63.1147 150.744 62.9512 151.005 62.9512C151.267 62.9512 151.96 63.1147 153.731 64.7971C154.97 65.9748 156.43 67.5788 158.367 69.7072C159.081 70.4913 159.859 71.3465 160.715 72.2778Z" fill="#FF0000"/>
<path d="M160.715 72.2778L161.789 73.4466L163.304 72.9716C164.561 72.5773 165.704 72.2121 166.748 71.8786C169.446 71.0165 171.485 70.3652 173.129 69.9662C175.513 69.3877 176.185 69.5948 176.4 69.7194C176.617 69.8448 177.131 70.3259 177.82 72.681C178.292 74.2932 178.743 76.3643 179.338 79.0988C179.574 80.1856 179.833 81.3773 180.126 82.6866L180.472 84.2351L182.02 84.5813C183.37 84.8833 184.596 85.1498 185.71 85.3922C188.412 85.9799 190.462 86.4257 192.061 86.8917C194.425 87.5806 194.895 88.0914 195.013 88.2971C195.132 88.504 195.338 89.1683 194.751 91.561C194.356 93.1714 193.721 95.157 192.885 97.7699C192.534 98.8666 192.148 100.074 191.73 101.41L191.256 102.924L192.423 103.997C193.322 104.824 194.15 105.578 194.911 106.272C197.075 108.244 198.7 109.726 199.888 110.981C201.563 112.75 201.728 113.449 201.728 113.717C201.728 113.988 201.558 114.687 199.881 116.458C198.703 117.702 197.097 119.167 194.966 121.111C194.189 121.819 193.343 122.592 192.422 123.44L191.256 124.514L191.73 126.026C192.113 127.251 192.469 128.367 192.795 129.39C193.667 132.126 194.324 134.188 194.723 135.846C195.297 138.227 195.089 138.901 194.962 139.119C194.834 139.34 194.349 139.854 191.999 140.544C190.391 141.015 188.327 141.466 185.603 142.06C184.517 142.297 183.327 142.557 182.019 142.85L180.472 143.196L180.126 144.744C179.838 146.03 179.583 147.202 179.349 148.273C178.748 151.03 178.293 153.116 177.817 154.736C177.127 157.086 176.611 157.569 176.391 157.697C176.172 157.823 175.496 158.03 173.116 157.454C171.467 157.056 169.422 156.403 166.714 155.54C165.679 155.21 164.547 154.849 163.303 154.459L161.789 153.985L160.715 155.152C159.802 156.145 158.978 157.051 158.226 157.878C156.346 159.945 154.922 161.51 153.709 162.669C151.934 164.365 151.251 164.521 151.005 164.521C150.76 164.521 150.077 164.365 148.302 162.669C147.089 161.51 145.665 159.945 143.785 157.878C143.033 157.051 142.208 156.145 141.295 155.152L140.222 153.985L138.709 154.459C137.306 154.898 136.045 155.301 134.905 155.666C132.356 156.482 130.411 157.105 128.827 157.497C126.425 158.093 125.774 157.885 125.58 157.773C125.386 157.662 124.881 157.203 124.196 154.825C123.743 153.252 123.308 151.247 122.739 148.617C122.487 147.454 122.209 146.168 121.891 144.744L121.545 143.197L119.998 142.85C118.627 142.542 117.384 142.272 116.257 142.026C113.588 141.445 111.559 141.003 109.971 140.541C107.608 139.854 107.132 139.343 107.011 139.134C106.891 138.928 106.683 138.265 107.265 135.876C107.663 134.247 108.306 132.233 109.156 129.572C109.499 128.5 109.874 127.324 110.281 126.027L110.755 124.514L109.589 123.44C108.641 122.567 107.772 121.774 106.977 121.049C104.874 119.132 103.286 117.684 102.117 116.452C100.434 114.681 100.267 113.985 100.266 113.72C100.266 113.458 100.428 112.763 102.108 110.991C103.29 109.744 104.906 108.272 107.054 106.314C107.828 105.609 108.671 104.841 109.588 103.997L110.755 102.924L110.281 101.41C109.887 100.151 109.522 99.0052 109.188 97.959C108.329 95.264 107.679 93.2269 107.281 91.5837C106.703 89.1993 106.91 88.5256 107.035 88.3087C107.161 88.0916 107.642 87.577 109.995 86.8876C111.609 86.4148 113.683 85.9631 116.424 85.3665C117.506 85.1309 118.693 84.8726 119.996 84.5814L121.545 84.2353L121.891 82.6863C122.201 81.2985 122.473 80.0427 122.72 78.9035C123.297 76.2383 123.737 74.211 124.196 72.6248C124.882 70.2531 125.391 69.787 125.591 69.6714C125.791 69.5559 126.448 69.3486 128.845 69.9394C130.447 70.3344 132.42 70.9665 135.014 71.7975C136.125 72.1534 137.349 72.5458 138.708 72.9716L140.222 73.4465L141.296 72.2778C142.152 71.3465 142.93 70.4913 143.644 69.7072C145.581 67.5788 147.041 65.9748 148.28 64.7971C150.05 63.1147 150.744 62.9512 151.005 62.9512C151.267 62.9512 151.96 63.1147 153.731 64.7971C154.97 65.9748 156.43 67.5788 158.367 69.7072C159.081 70.4913 159.859 71.3465 160.715 72.2778Z" stroke="black" stroke-width="5"/>
</g>
</g>
<defs>
<clipPath id="clip0_24_299">
<rect width="280" height="280" fill="white" transform="translate(11 13)"/>
</clipPath>
</defs>
</svg>
