<svg width="301" height="306" viewBox="0 0 301 306" fill="none" xmlns="http://www.w3.org/2000/svg">
<path fill-rule="evenodd" clip-rule="evenodd" d="M141.304 0.375639C180.737 -3.80979 212.273 27.8107 240.532 53.883C269.07 80.2118 307.931 109.987 299.939 146.734C292.074 182.898 234.016 181.317 206.974 208.183C178.001 236.967 182.32 294.819 141.304 304.333C99.5536 314.017 59.8044 279.67 32.3442 248.69C7.29959 220.435 -4.56296 182.985 1.60966 146.734C7.04151 114.833 39.297 96.8946 62.2932 72.8015C87.8239 46.0529 103.221 4.4178 141.304 0.375639Z" fill="#0099FF" fill-opacity="0.1"/>
<g clip-path="url(#clip0_21_128)">
<path d="M197.464 268.437C197.464 269.923 196.874 271.348 195.824 272.398C194.773 273.449 193.348 274.039 191.863 274.039H109.062C108.464 274.041 107.869 273.937 107.307 273.731C106.324 273.414 105.447 272.831 104.777 272.045C104.106 271.259 103.667 270.302 103.509 269.28C103.351 268.259 103.48 267.214 103.882 266.263C104.284 265.311 104.943 264.489 105.786 263.891H106.719L107.774 262.882C116.439 258.815 123.854 252.497 129.246 244.588C134.638 236.679 137.809 227.468 138.429 217.916C105.071 204.794 78.8 138.682 78.8 61.9124C78.7963 59.9497 79.1802 58.0056 79.9295 56.1917C80.6789 54.3777 81.779 52.7296 83.1669 51.3417C84.5547 49.9539 86.2028 48.8538 88.0168 48.1044C89.8308 47.355 91.7748 46.9712 93.7375 46.9749H207.248C215.487 46.9749 222.186 53.5847 222.186 61.7023C222.186 138.658 195.915 204.794 162.557 217.893C163.183 227.561 166.423 236.878 171.931 244.849C177.44 252.82 185.01 259.145 193.833 263.148L194.734 263.573C195.574 264.075 196.268 264.788 196.748 265.641C197.227 266.495 197.474 267.459 197.464 268.437Z" fill="#0099FF"/>
<path fill-rule="evenodd" clip-rule="evenodd" d="M156.288 92.5438L160.517 101.455C160.964 102.419 161.641 103.258 162.488 103.898C163.336 104.539 164.328 104.962 165.377 105.129L174.834 106.557C180.128 107.355 182.242 114.124 178.414 118.008L171.571 124.944C170.815 125.718 170.251 126.659 169.927 127.692C169.602 128.724 169.526 129.819 169.704 130.886L171.319 140.689C172.225 146.174 166.689 150.357 161.951 147.766L153.492 143.14C152.572 142.634 151.539 142.369 150.488 142.369C149.438 142.369 148.405 142.634 147.484 143.14L139.026 147.766C134.288 150.357 128.757 146.174 129.658 140.689L131.273 130.886C131.451 129.819 131.374 128.724 131.05 127.692C130.726 126.659 130.162 125.718 129.405 124.944L122.581 118.022C118.748 114.138 120.863 107.369 126.157 106.571L135.614 105.143C136.663 104.976 137.655 104.553 138.502 103.912C139.35 103.272 140.026 102.433 140.473 101.469L144.702 92.5578C145.202 91.4398 146.014 90.4901 147.041 89.8233C148.068 89.1564 149.266 88.8008 150.491 88.7993C151.715 88.7978 152.914 89.1505 153.943 89.8149C154.971 90.4793 155.786 91.427 156.288 92.5438Z" fill="white"/>
<g opacity="0.14">
<path d="M207.244 41H171.394C182.863 41 192.316 50.2286 192.325 61.6978V61.9125C192.325 139.602 166.829 204.654 132.575 221.776C138.331 224.657 144.329 226.225 150.5 226.225C193.399 226.225 228.175 152.658 228.175 61.9125V61.6978C228.166 50.2286 218.718 41 207.244 41Z" fill="#17292D"/>
</g>
<path d="M175.735 100.652L166.278 99.2236C166.197 99.2002 166.122 99.1586 166.06 99.102C165.998 99.0453 165.949 98.9751 165.918 98.8968L161.703 89.981C160.716 87.8449 159.138 86.0362 157.156 84.7684C155.173 83.5007 152.869 82.827 150.516 82.827C148.163 82.827 145.859 83.5007 143.877 84.7684C141.895 86.0362 140.317 87.8449 139.33 89.981L135.096 98.8828C135.066 98.9615 135.018 99.0323 134.957 99.0897C134.895 99.1472 134.821 99.1898 134.741 99.2142L125.284 100.643C123.004 100.993 120.867 101.97 119.111 103.464C117.354 104.959 116.047 106.912 115.336 109.106C114.579 111.35 114.46 113.759 114.992 116.067C115.523 118.375 116.685 120.489 118.347 122.176L125.19 129.113C125.282 129.218 125.348 129.342 125.385 129.476C125.422 129.61 125.429 129.75 125.405 129.887L123.79 139.69C123.379 142.053 123.647 144.485 124.561 146.702C125.476 148.919 127 150.832 128.957 152.219C130.825 153.558 133.034 154.34 135.328 154.475C137.622 154.611 139.908 154.094 141.92 152.985L150.635 148.363L159.098 152.989C161.11 154.102 163.396 154.621 165.691 154.486C167.986 154.35 170.195 153.566 172.061 152.224C174.019 150.837 175.543 148.924 176.457 146.707C177.372 144.489 177.639 142.058 177.229 139.695L175.614 129.892C175.589 129.755 175.596 129.614 175.633 129.48C175.67 129.346 175.737 129.222 175.828 129.117L182.672 122.223C184.334 120.536 185.496 118.422 186.028 116.114C186.559 113.806 186.44 111.396 185.682 109.152C184.977 106.952 183.673 104.991 181.916 103.489C180.159 101.988 178.019 101.005 175.735 100.652ZM174.167 113.82L167.305 120.752C165.889 122.199 164.835 123.959 164.228 125.889C163.62 127.819 163.477 129.866 163.808 131.862L165.423 141.665C165.464 141.817 165.458 141.978 165.407 142.127C165.355 142.276 165.26 142.406 165.134 142.5C164.975 142.617 164.933 142.589 164.821 142.528L156.358 137.902C154.56 136.915 152.542 136.398 150.491 136.398C148.439 136.398 146.421 136.915 144.623 137.902L136.165 142.528C136.048 142.594 136.006 142.617 135.847 142.5C135.721 142.406 135.626 142.276 135.574 142.127C135.523 141.978 135.517 141.817 135.558 141.665L137.173 131.862C137.507 129.867 137.366 127.822 136.762 125.891C136.158 123.961 135.107 122.201 133.695 120.752L126.838 113.82C126.72 113.699 126.641 113.546 126.609 113.38C126.578 113.214 126.596 113.043 126.661 112.887C126.787 112.504 126.978 112.476 127.053 112.462L136.496 111.02C138.511 110.709 140.419 109.908 142.052 108.687C143.684 107.466 144.992 105.862 145.86 104.018L150.089 95.1064C150.383 94.4996 150.584 94.4996 150.873 95.1064L155.121 104.018C155.991 105.865 157.302 107.47 158.938 108.691C160.574 109.912 162.486 110.712 164.504 111.02L173.966 112.448C174.041 112.448 174.232 112.49 174.358 112.873C174.424 113.032 174.441 113.207 174.407 113.376C174.373 113.545 174.289 113.699 174.167 113.82ZM263.792 78.031C261.832 75.7849 259.414 73.9842 256.701 72.7499C253.987 71.5156 251.041 70.8763 248.061 70.875H228.058C228.133 67.9062 228.172 64.9187 228.175 61.9125V61.6978C228.166 50.2286 218.718 41 207.244 41H93.7562C82.2823 41 72.8343 50.2286 72.825 61.6978V61.9125C72.825 64.9187 72.8639 67.9062 72.9417 70.875H52.9394C49.9463 70.8787 46.9887 71.5234 44.2656 72.7658C41.5424 74.0082 39.117 75.8195 37.1525 78.0777C35.1879 80.3359 33.7299 82.9887 32.8763 85.8575C32.0228 88.7264 31.7937 91.7448 32.2043 94.7096C38.2447 139.181 66.5559 176.142 104.894 194.936C112.918 207.264 122.095 216.408 132.024 221.543C131.793 223.114 131.482 224.672 131.091 226.211C129.295 233.15 125.963 239.596 121.339 245.073C116.716 250.55 110.92 254.917 104.38 257.85C104.38 257.85 104.338 257.892 104.315 257.892H104.287C102.181 258.839 100.407 260.396 99.1951 262.362C97.9833 264.328 97.3892 266.613 97.4898 268.92C97.5903 271.227 98.3809 273.451 99.7591 275.304C101.137 277.157 103.04 278.554 105.221 279.314C106.455 279.771 107.761 280.003 109.076 280H191.877C194.451 279.993 196.95 279.129 198.98 277.546C201.009 275.962 202.455 273.748 203.088 271.253C203.721 268.758 203.506 266.123 202.477 263.763C201.448 261.403 199.663 259.453 197.404 258.219C197.044 258.042 196.685 257.892 196.33 257.71C189.862 254.758 184.135 250.4 179.566 244.953C174.997 239.506 171.701 233.108 169.919 226.225C169.528 224.686 169.216 223.128 168.985 221.557C178.914 216.422 188.096 207.273 196.115 194.95C234.458 176.156 262.765 139.195 268.81 94.719C269.215 91.7403 268.977 88.7094 268.113 85.8302C267.249 82.9509 265.779 80.29 263.801 78.0263L263.792 78.031ZM44.047 93.0992C43.871 91.8128 43.9724 90.5036 44.3444 89.2597C44.7164 88.0157 45.3503 86.8658 46.2036 85.8872C47.0379 84.9198 48.0722 84.1449 49.2352 83.6162C50.3981 83.0876 51.662 82.8176 52.9394 82.825H73.4505C75.5744 118.171 83.0058 150.011 93.9896 174.658C67.4895 156.075 48.6496 126.993 44.047 93.0992ZM158.347 229.203C160.497 237.616 164.467 245.454 169.975 252.166C175.484 258.878 182.398 264.3 190.229 268.05H111.084L111.354 267.779C119.043 263.99 125.821 258.58 131.219 251.921C136.618 245.263 140.511 237.514 142.63 229.208C142.938 228.003 143.199 226.785 143.433 225.557C148.086 226.448 152.867 226.448 157.521 225.557C157.777 226.785 158.034 228.003 158.347 229.203ZM150.5 214.275C134.862 214.275 118.781 199.23 106.378 172.991C92.4445 143.523 84.775 104.074 84.775 61.8938V61.6884C84.8094 59.3394 85.7744 57.1 87.4582 55.4617C89.142 53.8234 91.4071 52.9201 93.7562 52.95H207.244C209.595 52.9201 211.861 53.8247 213.545 55.465C215.229 57.1053 216.193 59.3471 216.225 61.6978V61.9125C216.225 104.074 208.551 143.523 194.622 173.01C182.219 199.244 166.138 214.275 150.5 214.275ZM256.953 93.0992C252.35 126.993 233.51 156.075 207.006 174.658C217.999 150.011 225.43 118.176 227.545 82.825H248.061C249.337 82.8183 250.6 83.0886 251.762 83.6172C252.924 84.1459 253.958 84.9204 254.792 85.8872C255.646 86.8654 256.281 88.0152 256.653 89.2591C257.026 90.5031 257.128 91.8125 256.953 93.0992Z" fill="#141F38"/>
</g>
<defs>
<clipPath id="clip0_21_128">
<rect width="239" height="239" fill="white" transform="translate(31 41)"/>
</clipPath>
</defs>
</svg>
